<svg id="Слой_2" data-name="Слой 2" xmlns="http://www.w3.org/2000/svg" viewBox="0 0 3207.6 1591.18"><defs><style>.cls-1{opacity:0.22;}.cls-2{fill:#565252;}.cls-3{fill:#e05353;}.cls-4{fill:#163560;}.cls-5{fill:#1c468a;}.cls-6{fill:#ffb27d;}.cls-7{fill:#e58638;}.cls-8{fill:#ff5f59;}.cls-9{fill:#fca56b;}.cls-10{fill:#e49963;}.cls-11{fill:#4a75cb;}.cls-12{fill:#2b478b;}.cls-13{fill:#739af0;}.cls-14{fill:#d68d5d;}.cls-15{fill:#f1a34f;}.cls-16{fill:#2d2c2c;}.cls-17{fill:#e9f3fe;}.cls-18{fill:#afcdfb;}</style></defs><g class="cls-1"><path class="cls-2" d="M2904.87,1807.09s343.13,26.91,448.81-174c157.13-298.74-148.26-539.54-369.8-496.19-482.74,94.46-366.5-947.63-1141.23-734.95-217.85,59.8-806.43-295.46-970.59,274.17C833,811.57,694.72,826.49,494,912.43c-392.93,168.21-213.27,897.5,67.49,900.36S2904.87,1807.09,2904.87,1807.09Z" transform="translate(-189.3 -222.68)"/><path class="cls-2" d="M3336.59,1813.86H321.07a2.7,2.7,0,0,1-2.69-2.69h0a2.7,2.7,0,0,1,2.69-2.69H3336.59a2.71,2.71,0,0,1,2.7,2.69h0A2.71,2.71,0,0,1,3336.59,1813.86Z" transform="translate(-189.3 -222.68)"/></g><path class="cls-2" d="M1431.51,836.91l-39.59-.91c12.72,16.49,15.58,31.67,7.66,44.52-7.92,13.1-26.86,23.88-55.15,32.05a510.73,510.73,0,0,0-117.58-540.13,512.05,512.05,0,0,0-560.5-109.66c-7.53,3.25-15.06,6.62-22.33,10.13l-.06,0c-22-6.71-43.4-12.21-64.07-16.4-104.3-21.16-178.31-6.53-208.38,41.19-28.61,45.4-13,113.73,43.74,193.42l0,0c-7.66,14.15-14.54,28.68-20.9,43.73-4.8,11.29-9.08,22.58-13,34.13-106.68,6.36-163.78,25.14-184.54,59.14-24.14,39.58,8.82,92.7,114.33,144.35,14.53,7.14,30.11,14.15,46.46,21.16a500.14,500.14,0,0,0,36.72,139.12,511.33,511.33,0,0,0,940,4.8c52-10.77,86.3-27.64,99.93-50C1443.7,872.21,1442.54,855.08,1431.51,836.91Zm-122.12,83.71c-34.65,6.23-77.87,9.86-128.35,10.38-78.34,1-168.3-5.23-263.11-17.73q12-26,23.42-53.46A723.21,723.21,0,0,0,1026.56,883c31.19,6.34,59.66,9.46,85.07,9.46,59.56,0,102.24-17.19,123.31-50.65a87.45,87.45,0,0,0,8.48-17.52h-30.36c-.51.92-1,1.83-1.6,2.72-15.66,24.86-50.64,37.69-99.76,37.68-23.49,0-50.24-2.93-79.63-8.9a695.36,695.36,0,0,1-80.19-21.69q11-27.44,21.28-55.86c18.51-51,34.35-101.62,47.17-150.2,58.41,8.62,121.11,12.94,187.73,12.94q62.2,0,128.9-5a483.78,483.78,0,0,1,9.93,97.94A478.66,478.66,0,0,1,1309.39,920.62ZM676.81,1174c-14.76-5.35-22.26-26.55-25.95-43.39-5.83-26.6-6.88-64-3.05-108.08,1.94-22.3,5.06-46,9.26-70.81a1313.19,1313.19,0,0,1,178.83,61.88c-13.15,22.67-26.44,43.69-39.73,62.74-25.33,36.3-50.09,64.31-71.62,81C710.92,1167.94,691.58,1179.4,676.81,1174ZM849.27,989.9A1342.21,1342.21,0,0,0,661.93,925q3.36-17.26,7.35-35.12,26.46,6,53.65,11.63c53,10.84,105.89,20.05,157.65,27.5Q865.21,960.86,849.27,989.9ZM734.61,882.33Q703.89,876,674.1,869.14c9.34-38.85,20.81-79.37,34.21-120.64,69.62,42.79,140.42,77.6,207.45,102.31q-12.62,30.12-25.87,58.6C839,902.11,786.88,893.05,734.61,882.33Zm-170-524.53a318.85,318.85,0,0,0,18.82,33.12c35.2,54.39,81.68,93.82,114.48,117.31a560.84,560.84,0,0,0,60.23,37.51c-19.44,42.36-38,87.58-55,134.53q-4.75,13.13-9.28,26.21C592.13,640.28,506,564.31,449.53,490.79l0,0A483.54,483.54,0,0,1,498,422.41c7.52-8.83,15.31-17.39,23.49-25.7l3.37-3.37A487.26,487.26,0,0,1,564.57,357.8Zm434.89-73.36c14.77,5.35,22.26,26.55,26,43.39,5.83,26.6,6.88,64,3,108.08-4.2,48.27-13.87,103.09-28.25,161.47q-26.06-4.49-50.87-10.17c-57.09-13.13-109.14-31.09-155.62-53.65,27.73-57.84,57.06-109.43,86.38-151.46,25.33-36.3,50.1-64.31,71.63-81,11.23-8.7,26.35-18,39.59-18A23.71,23.71,0,0,1,999.46,284.44Zm-58,328.73q25.38,5.9,52.06,10.51c-12.49,47-27.86,95.9-45.78,145.3q-10.35,28.56-21.41,56.15c-67.3-24.71-138.73-60-209-103.7q5.45-15.91,11.24-31.93c16.65-45.89,34.71-90.06,53.66-131.43C830,581.21,883.19,599.65,941.42,613.17Zm264.4-219.83a479.56,479.56,0,0,1,124.84,215.89c-111,8.11-212.7,5.56-303.62-7.6,14.43-58.94,24.14-114.4,28.4-163.38,4.7-54.09,4.13-118.15-17.8-154.21,5.08,2,10.14,4,15.18,6.13A477.76,477.76,0,0,1,1205.82,393.34ZM865.42,252.27a482.25,482.25,0,0,1,98.23,10c-37.82,16.46-76.44,62.29-105.76,104.32-30,43-60,95.64-88.26,154.56a533.48,533.48,0,0,1-54.11-33.61c-56.27-39.92-90-81.73-108.36-109.77a284.86,284.86,0,0,1-20.52-36.67,482.81,482.81,0,0,1,62.24-37.55h0q13.26-6.7,27-12.56l2-.85.46-.2q2.92-1.23,5.87-2.42l1.58-.63A478.27,478.27,0,0,1,865.42,252.27ZM395,312.53c15.66-24.85,50.64-37.67,99.76-37.67,23.5,0,50.24,2.93,79.63,8.9q16.74,3.39,34.15,8h0a502.67,502.67,0,0,0-104.69,80.7c-6.62,6.49-13,13.24-19.21,20.25-7.79,8.56-15.18,17.52-22.32,26.6a516.58,516.58,0,0,0-31.67,45.3l0,0C387.24,400.18,374.19,345.53,395,312.53Zm26.6,233.94c4.28-9.86,8.69-19.59,13.49-29.07l0,0c59.48,74.34,147.14,150.34,249.58,216.26-14.53,44.2-26.92,87.65-36.92,129.28-74.52-18-143.59-38.43-204.11-60.27-12.72-4.54-25-9.21-36.86-13.88-7-2.73-13.88-5.58-20.63-8.44-1-10.38-1.82-20.89-2.08-31.41-.13-5.06-.26-10-.26-15,0-5.84.13-11.81.26-17.65a487.5,487.5,0,0,1,22.06-127.7c2.21-7,4.55-13.89,7.14-20.76C415.88,560.62,418.6,553.48,421.59,546.47ZM334.77,757.23c-92-44.9-134.06-88.25-115.24-119,15.18-24.92,70.46-41.79,155.08-48a497.54,497.54,0,0,0-19.21,108c-.78,10.9-1.17,21.8-1.3,32.84v2.85c0,11,.39,22.06,1,33C348.13,763.72,341.39,760.47,334.77,757.23Zm69.82,55.15c12.45,4.68,25.17,9.35,38.28,13.89,60.25,20.88,127.8,40.28,200,57.5q-3.93,17.57-7.26,34.6-8.85-2.14-17.72-4.18C518,891.46,443.09,886.83,408.34,886.05a471.76,471.76,0,0,1-18.94-79.51Zm17,108.89c-1.09-2.58-2.14-5.16-3.18-7.75,37,1.49,105.75,7.1,193.51,27.08q9.42,2.14,18.82,4.45c-4.52,26.34-7.85,51.52-9.91,75.18-3.89,44.82-4.17,96.51,8.33,133.42A484.42,484.42,0,0,1,421.59,921.27Zm631.23,256.31a483.27,483.27,0,0,1-333.42,15.36c35.62-18.67,71.42-61.55,99-101.07,14.22-20.38,28.42-42.93,42.45-67.27a1360.84,1360.84,0,0,1,231.67,134Q1073.17,1169,1052.82,1177.58Zm153-103.18a477.58,477.58,0,0,1-87.58,69.43,1389.63,1389.63,0,0,0-244.12-142.94c11.75-21.51,23.32-44.24,34.62-68,78.17,10.36,153.33,16.58,221.94,18.19,17.91.51,35.3.51,52.17.38,43.74-.51,82.67-3.11,116-7.78A478.32,478.32,0,0,1,1205.82,1074.4Z" transform="translate(-189.3 -222.68)"/><path class="cls-3" d="M2409.33,773.44s96.28,94.74,100.68,130.47-43.67,91.61-43.67,91.61Z" transform="translate(-189.3 -222.68)"/><path class="cls-4" d="M2374.59,1757.51s-3.13,50.37-12.87,51.09c-1.3.09-49.43.09-49.43.09l-61.43-.35s.4-14.81,18.36-17.94,48-15.75,58.89-39.48C2339.56,1726,2374.59,1757.51,2374.59,1757.51Z" transform="translate(-189.3 -222.68)"/><path class="cls-4" d="M2511.43,1757.51s-3.12,50.37-12.87,51.09c-1.29.09-49.42.09-49.42.09l-61.44-.35s.4-14.81,18.36-17.94,48-15.75,58.9-39.48C2476.4,1726,2511.43,1757.51,2511.43,1757.51Z" transform="translate(-189.3 -222.68)"/><path class="cls-4" d="M2306.54,1216.18s16.07,102.77,76,285.2,68.11,261.43,68.11,261.43l64.3-1.8s.55-199.38-27.08-291.11-6-330.73-6-330.73Z" transform="translate(-189.3 -222.68)"/><path class="cls-5" d="M2275.25,1144.8s-2.27,154.87,24.52,345,17.71,270.86,17.71,270.86l64.18,2.13S2420,1572.59,2409,1477.42s52.51-326.59,52.51-326.59Z" transform="translate(-189.3 -222.68)"/><path class="cls-6" d="M2399.49,782.39l-30.27,22.42-43.75-9.21c.61-4,3.5-20.53,6.13-35.5.15-.88.31-1.77.46-2.63,2.25-12.74,4.2-23.69,4.2-23.69l40.86-20.36,15.23-7.59c0,.26-1.18,14.14-1.34,16.16C2388.15,758,2399.49,782.39,2399.49,782.39Z" transform="translate(-189.3 -222.68)"/><path class="cls-7" d="M2328.53,771.08c1-.41,59.51-17.68,65.87-15.58s10.13,14.4,10.13,14.4l-95.77,21.65S2316.3,776.23,2328.53,771.08Z" transform="translate(-189.3 -222.68)"/><path class="cls-8" d="M2486.19,1163.92c-9.92,45.27-175.09,50.64-217.66,9.54-4.84-4.68-5.08-26.47-3.26-55.86,3.58-57.41,15.05-143.77,15.49-187.89.22-21.31,3.15-43.1,7-62.89a511.4,511.4,0,0,1,21-75.27s80.67-26.08,95.77-21.65C2477.25,791.27,2496.12,1118.64,2486.19,1163.92Z" transform="translate(-189.3 -222.68)"/><path class="cls-3" d="M2265.27,1117.6c3.58-57.41,15.05-143.77,15.49-187.89.22-21.31,3.15-43.1,7-62.89l48.53-8.56S2383.79,1052.05,2265.27,1117.6Z" transform="translate(-189.3 -222.68)"/><path class="cls-6" d="M2291.55,1037.58s3.31,7.91-3.64,13.22-11.45,13.91-9.86,20.19,16.83,16.54,22.11,14.89,16-9.94,14.88-13.25,7.23-29.1-5.65-39S2291.55,1037.58,2291.55,1037.58Z" transform="translate(-189.3 -222.68)"/><path class="cls-8" d="M2345.72,781.5s-47.23,7.29-84.94,62.86-62.52,96.9-55.58,116.93,70.27,89.49,81.19,89.49,28.53-7.94,29.52-25.8c0,0-44.58-66.82-35.8-76.82,3.76-4.28,57.88-48.22,65.61-28.37C2358.51,952.63,2345.72,781.5,2345.72,781.5Z" transform="translate(-189.3 -222.68)"/><path class="cls-9" d="M2387.94,722.63c-9,17.16-42.4,32-56.34,37.47.15-.88.31-1.77.46-2.63,2.25-12.74,4.2-23.69,4.2-23.69l40.86-20.36C2386.15,713.28,2391.65,715.56,2387.94,722.63Z" transform="translate(-189.3 -222.68)"/><path class="cls-6" d="M2316.41,731.39s73.71,23,87.32-23.13S2436,634,2389.54,617.41s-60.87-1.74-69.16,12.55S2297.58,724.22,2316.41,731.39Z" transform="translate(-189.3 -222.68)"/><path class="cls-4" d="M2331.94,627.27s4.26,55.38,15.4,52.88,21.25-4.37,19.48,12.34-17.35,36.14,16.91,38.8,84.3-88.83,75-106C2432,575.77,2293.16,566.91,2331.94,627.27Z" transform="translate(-189.3 -222.68)"/><path class="cls-10" d="M2852.09,1133.37s-28.27,7.26-46.25,1.84-48.9,3.48-53.88,10-3.15,9.16,5.74,11.42,40.38,15.7,61.07,7.92,47.69-8,47.69-8Z" transform="translate(-189.3 -222.68)"/><path class="cls-11" d="M3096.43,887.77s-31.76,225.73-84.35,246c-25.95,10-140.63,32.59-174.56,34.86,0,0-8.31-6.74-6.28-34.18,0,0,120.15-44.11,137.22-68.1,25.41-35.7-15.77-145.86,16.11-179.39S3070.13,839,3096.43,887.77Z" transform="translate(-189.3 -222.68)"/><path class="cls-12" d="M3092.37,1758v-49.64h77.49a3.81,3.81,0,0,0,3.8-3.8v-7.89a3.81,3.81,0,0,0-3.8-3.8h-77.49V1412.66a14.33,14.33,0,0,0-14.29-14.29h-15.33a14.33,14.33,0,0,0-14.3,14.29v280.16H2971a3.81,3.81,0,0,0-3.8,3.8v7.89a3.81,3.81,0,0,0,3.8,3.8h77.48V1758c-56.06,4.24-101,24.43-113.58,50.51H3206C3193.35,1782.38,3148.44,1762.19,3092.37,1758Z" transform="translate(-189.3 -222.68)"/><path class="cls-4" d="M3085.73,1363.34a395.83,395.83,0,0,1-31,44.39c-34.13,43.09-71.29,78.62-77.76,112.21a153.06,153.06,0,0,1-6,21.5c-2.71,7.69-6.05,15.78-9.91,24.14-14.48,31.46-36.14,66.72-57.77,98.77-37.39,55.4-72.55,101.63-72.55,101.63l-64.47-2.75c2.58-6.46,30.7-83,68.32-176.44,15.28-38,31.52-78.31,47.19-117.24L2888,1454c4.8-11.91,9.51-23.64,14.11-35.06l63.46-157.67s141.18-53.48,155.84-18.83C3133.49,1271.06,3123.64,1299.05,3085.73,1363.34Z" transform="translate(-189.3 -222.68)"/><path class="cls-4" d="M2828.7,1754.25s-3.16,53.46-13.45,54.23c-1.37.1-117.75,0-117.75,0s.93-16.17,19.9-19.48,50.72-16.63,62.21-41.71C2791.7,1720.92,2828.7,1754.25,2828.7,1754.25Z" transform="translate(-189.3 -222.68)"/><path class="cls-4" d="M2978,1602.26s44.84,28.82,40.49,38.18c-.58,1.24-25.36,45.63-25.36,45.63l-32,56.48s-13.44-8-7.08-26.17,10.2-52.4-6.09-74.65C2930.85,1618.31,2978,1602.26,2978,1602.26Z" transform="translate(-189.3 -222.68)"/><path class="cls-5" d="M2918.44,1235.31s-178.33,111-198.11,185.18,235.73,232.42,235.73,232.42,28-24.72,33-42.86c0,0-115.5-138.36-140.55-169.38-15.39-19.05,227.5-65.94,257.17-112.1s19-85,19-85Z" transform="translate(-189.3 -222.68)"/><rect class="cls-8" x="2686.59" y="1154.98" width="389.05" height="98.91" rx="13.19"/><path class="cls-10" d="M3085.09,845.18s-70.37,39.34-112.83,28.36a100.2,100.2,0,0,1,27-24.46c-.93-4.13-1.74-8-2.44-11.64-4.06-20.73-4.79-32.79-4.79-32.79l32.42-29,21.8,4.62c.42,2.14.88,4.22,1.4,6.26C3057.77,826.82,3085.09,845.18,3085.09,845.18Z" transform="translate(-189.3 -222.68)"/><path class="cls-13" d="M3130.05,1049.52c-6.08,81.79,1.92,206.17-5,227.71-6,18.59-73.79,7.54-100.87,1.34-10-2.3-22.16-5.58-34.69-9.46-35-10.83-73.08-26.29-77.17-37.77a10.11,10.11,0,0,1-.37-1.32v0c-.07-.29-.12-.58-.16-.86a10.81,10.81,0,0,1,.23-3.93c1.36-5.85,6.61-12.18,7.23-26.67.69-16.17.59-35.22,1.2-55.7,0-2.31.06-4.83.31-7.12v-.84l0-1.31c.59-22.84,1.79-46.86,3.17-70.67.88-15,1.9-29.78,3.07-44,3.05-36.64,7.16-69.22,12.6-89.81,8.89-33.58,28.49-55.48,46.34-71.53l12.9-11.07c14.4,3.15,31.43,1.06,46.83-6.24,16.66-7.91,22.42-13.58,25.32-11.44C3109.54,858.54,3137.23,949.54,3130.05,1049.52Z" transform="translate(-189.3 -222.68)"/><path class="cls-11" d="M2989.51,1269.11c-35-10.83-73.08-26.29-77.17-37.77a10.11,10.11,0,0,1-.37-1.32v0a2.66,2.66,0,0,0-.16-.86,10.81,10.81,0,0,1,.23-3.93c1.36-5.85,6.61-12.18,7.23-26.67.69-16.17.59-35.22,1.2-55.7,0-2.31.06-4.83.31-7.12v-.84l0-1.31,132.1-59.91S3060.53,1180.12,2989.51,1269.11Z" transform="translate(-189.3 -222.68)"/><path class="cls-14" d="M3047.65,786.48c-4.8,12.13-19.17,40.73-50.83,51-4.06-20.73-4.79-32.79-4.79-32.79l32.42-29,21.8,4.62C3046.67,782.36,3047.13,784.44,3047.65,786.48Z" transform="translate(-189.3 -222.68)"/><path class="cls-10" d="M2979.21,804.34s69.56,7.84,73.78-35.56,16.05-71.61-28.19-78.46-54.5,8.88-59.43,23S2961.22,801.18,2979.21,804.34Z" transform="translate(-189.3 -222.68)"/><path class="cls-12" d="M3052.7,771.78s-4.42-57.61-67.74-63.58c-43.38-4.08-19.19-41.42-14.57-47.37,0,0,33.23,4.56,67.3,10.19C3109.18,682.83,3059.72,762.81,3052.7,771.78Z" transform="translate(-189.3 -222.68)"/><polygon class="cls-11" points="2696.23 954.95 2523.85 958.63 2474.84 807.8 2468.75 809.77 2520.56 969.23 2696.46 965.47 2696.23 954.95"/><path class="cls-10" d="M2866.64,1168.07s-27.3,10.33-45.76,6.93-48.22,8.85-52.45,15.91-2.13,9.45,7,10.72,41.86,11.15,61.58,1.14,46.51-13.27,46.51-13.27Z" transform="translate(-189.3 -222.68)"/><path class="cls-13" d="M3082.41,897s-6.68,227.85-56.72,253.74c-24.69,12.78-136.18,47.9-169.64,53.9,0,0-9-5.79-10-33.28,0,0,114.56-57.09,128.88-82.82,21.31-38.28-31.76-143.23-3.77-180.07S3050.9,851.43,3082.41,897Z" transform="translate(-189.3 -222.68)"/><path class="cls-3" d="M1194.9,916.69l-70.69,840.56s-7.41,51,30.49,51c62.32.15,310.17,0,310.17,0s-46.9-10.61-46.33-34.47c.67-28.13,82.62-865.08,82.62-865.08Z" transform="translate(-189.3 -222.68)"/><path class="cls-8" d="M1485,1793c-12.26,0-249,.78-309.67,0-26.45-.33-31.09-23.52-31.31-38.52a76,76,0,0,1,.81-12.52l1.84-21.84,4.68-55.69,4.14-49.19,5.32-63.22,4.48-53.35,50.23-597.28,306.26-7.94s-34.52,350.26-58.93,605.22c-2.73,28.4-5.32,55.64-7.72,81.07q-1.17,12.17-2.25,23.78c-2.27,24.12-4.34,46.27-6.14,65.83-1,10.31-1.82,19.89-2.61,28.66-3.12,34.39-4.94,56.34-5,60.52a35.56,35.56,0,0,0,.6,6.8C1444.76,1792.16,1480.38,1793,1485,1793Z" transform="translate(-189.3 -222.68)"/><polygon class="cls-8" points="261.83 236.61 434.03 928.28 457.6 1023.01 537.8 1345.17 2027.79 1345.17 1732.19 236.61 261.83 236.61"/><polygon class="cls-8" points="261.83 236.61 237.97 244.57 506.08 1369.23 537.81 1345.17 261.83 236.61"/><polygon class="cls-8" points="506.08 1369.23 1986.89 1369.23 2027.79 1345.17 537.81 1345.17 506.08 1369.23"/><rect class="cls-8" x="1026.1" y="1570.69" width="320.62" height="15.24"/><polygon class="cls-15" points="1955.61 1140.9 1713.84 251.27 259.45 251.27 259.45 236.61 1732.19 236.61 1973.15 1138.92 1955.61 1140.9"/><polygon class="cls-3" points="1265.21 1369.23 1263.56 1380.88 962.03 1441.79 966.17 1392.6 968.14 1369.23 1265.21 1369.23"/><path class="cls-8" d="M1485,1793c-12.26,0-249,.78-309.67,0-26.45-.33-31.09-23.52-31.31-38.52l300.11-56.47c-3.12,34.39-4.94,56.34-5,60.52a35.56,35.56,0,0,0,.6,6.8C1444.76,1792.16,1480.38,1793,1485,1793Z" transform="translate(-189.3 -222.68)"/><polygon class="cls-3" points="1192.33 1120.76 537.81 1345.17 457.6 1023.01 1192.33 1120.76"/><polygon class="cls-16" points="261.83 236.61 1732.19 236.61 1970.75 1127.54 476.05 1127.54 261.83 236.61"/><ellipse class="cls-3" cx="1472.04" cy="1462.85" rx="35.9" ry="43.59" transform="translate(-789.8 1347.12) rotate(-47.77)"/><polygon class="cls-17" points="1901.41 1088.94 524.71 1088.94 368.8 467.85 356.85 420.22 346.65 379.59 322.74 284.33 1679.59 284.33 1705.85 379.59 1717.05 420.22 1730.18 467.85 1901.41 1088.94"/><polygon class="cls-2" points="1705.85 379.59 346.65 379.59 322.74 284.33 1679.59 284.33 1705.85 379.59"/><path class="cls-17" d="M577.11,538.16c-6.58,0-10.58,5.33-8.94,11.91S576.47,562,583.05,562s10.58-5.34,8.94-11.91S583.69,538.16,577.11,538.16Z" transform="translate(-189.3 -222.68)"/><path class="cls-17" d="M616.68,538.16c-6.58,0-10.58,5.33-8.94,11.91S616,562,622.62,562s10.57-5.34,8.93-11.91S623.25,538.16,616.68,538.16Z" transform="translate(-189.3 -222.68)"/><path class="cls-17" d="M674.16,550.07c-1.64-6.58-8.3-11.91-14.88-11.91s-10.58,5.33-8.94,11.91S658.64,562,665.22,562,675.8,556.64,674.16,550.07Z" transform="translate(-189.3 -222.68)"/><path class="cls-2" d="M1659.34,880.53c-9.94-39.86-50.49-72.29-90.39-72.29-19.24,0-35.63,7.42-46.17,20.9-11,14-14.26,32.79-9.27,52.8,9.94,39.87,50.49,72.3,90.39,72.3,19.24,0,35.64-7.42,46.17-20.9C1661,919.3,1664.33,900.54,1659.34,880.53Zm-13.88,49.21c-9.4,12-24.16,18.66-41.56,18.66-37.39,0-75.39-30.45-84.72-67.87-4.55-18.23-1.63-35.2,8.21-47.8,9.4-12,24.16-18.65,41.56-18.65,37.39,0,75.39,30.44,84.72,67.86C1658.22,900.17,1655.3,917.15,1645.46,929.74Z" transform="translate(-189.3 -222.68)"/><polygon class="cls-2" points="1406.3 674.88 1399.03 624.06 1398.46 621.76 1377.99 621.76 1378.57 624.06 1396.64 674.88 1406.3 674.88"/><polygon class="cls-2" points="1394.39 683.85 1398.98 702.24 1417.6 702.24 1413.02 683.85 1394.39 683.85"/><path class="cls-2" d="M1703.78,1053.17c-9.94-39.86-50.48-72.29-90.39-72.29-19.24,0-35.63,7.42-46.16,20.9-11,14-14.27,32.8-9.28,52.81,9.94,39.86,50.49,72.29,90.39,72.29,19.24,0,35.64-7.42,46.17-20.9C1705.48,1091.94,1708.77,1073.18,1703.78,1053.17Zm-13.87,49.21c-9.4,12-24.17,18.66-41.57,18.66-37.38,0-75.39-30.44-84.72-67.87-4.55-18.23-1.63-35.2,8.21-47.79,9.4-12,24.16-18.66,41.56-18.66,37.39,0,75.4,30.44,84.73,67.87C1702.66,1072.82,1699.75,1089.79,1689.91,1102.38Z" transform="translate(-189.3 -222.68)"/><polygon class="cls-2" points="1450.74 847.52 1443.47 796.7 1442.9 794.4 1422.43 794.4 1423.01 796.7 1441.08 847.52 1450.74 847.52"/><polygon class="cls-2" points="1438.83 856.49 1443.42 874.88 1462.04 874.88 1457.46 856.49 1438.83 856.49"/><path class="cls-2" d="M1856.13,858.33c4.53,0,7.31-3.7,6.18-8.22a11.28,11.28,0,0,0-10.28-8.23H1705.52c-4.52,0-7.3,3.7-6.18,8.23a11.28,11.28,0,0,0,10.28,8.22Z" transform="translate(-189.3 -222.68)"/><path class="cls-18" d="M1838,741.47a11.28,11.28,0,0,0-10.28-8.23H1681.21c-4.53,0-7.31,3.7-6.18,8.23a11.28,11.28,0,0,0,10.28,8.22h146.51C1836.34,749.69,1839.12,746,1838,741.47Z" transform="translate(-189.3 -222.68)"/><path class="cls-2" d="M1864,889.67c4.52,0,7.3-3.7,6.17-8.22a11.27,11.27,0,0,0-10.28-8.23H1713.33c-4.52,0-7.3,3.7-6.17,8.23a11.27,11.27,0,0,0,10.28,8.22Z" transform="translate(-189.3 -222.68)"/><path class="cls-2" d="M1877.93,912.79a11.26,11.26,0,0,0-10.27-8.23H1721.15c-4.53,0-7.31,3.7-6.18,8.23a11.27,11.27,0,0,0,10.28,8.22h146.51C1876.28,921,1879.06,917.31,1877.93,912.79Z" transform="translate(-189.3 -222.68)"/><path class="cls-2" d="M1900.57,1031c4.53,0,7.31-3.71,6.18-8.23a11.28,11.28,0,0,0-10.28-8.23H1750c-4.52,0-7.3,3.71-6.17,8.23a11.27,11.27,0,0,0,10.27,8.23Z" transform="translate(-189.3 -222.68)"/><path class="cls-2" d="M1908.39,1062.32c4.52,0,7.3-3.71,6.17-8.23a11.26,11.26,0,0,0-10.27-8.23H1757.78c-4.53,0-7.31,3.7-6.18,8.23a11.28,11.28,0,0,0,10.28,8.23Z" transform="translate(-189.3 -222.68)"/><path class="cls-2" d="M1922.38,1085.43a11.28,11.28,0,0,0-10.28-8.23H1765.59c-4.53,0-7.3,3.7-6.18,8.23a11.28,11.28,0,0,0,10.28,8.22H1916.2C1920.73,1093.65,1923.5,1090,1922.38,1085.43Z" transform="translate(-189.3 -222.68)"/><path class="cls-2" d="M1831.83,706.88l-10.23-41c-1.87-7.52-9.56-13.68-17.08-13.68H630.21c-7.52,0-12.14,6.16-10.26,13.68l10.22,41c1.88,7.52,9.57,13.68,17.09,13.68h1174.3C1829.08,720.56,1833.7,714.4,1831.83,706.88Z" transform="translate(-189.3 -222.68)"/><path class="cls-8" d="M1462.66,652.19l17,68.37H647.26c-7.52,0-15.21-6.16-17.09-13.68l-10.22-41c-1.88-7.52,2.74-13.68,10.26-13.68Z" transform="translate(-189.3 -222.68)"/><polygon class="cls-16" points="1422.89 451.12 1424.2 456.37 1437.2 456.37 1430.42 478.76 1437.29 478.76 1443.94 455.7 1442.8 451.12 1422.89 451.12"/><path class="cls-16" d="M1647.66,673.33c-7.35,0-10.76,6.28-8.76,14.29s8.42,14.3,15.81,14.3,10.75-6.28,8.75-14.3S1655,673.33,1647.66,673.33Zm5.75,23.1c-3.67,0-7-3.75-8.27-8.81s.17-8.8,3.8-8.8,7,3.79,8.28,8.8S1657.09,696.43,1653.41,696.43Z" transform="translate(-189.3 -222.68)"/><path class="cls-16" d="M1699.69,694.69c-1-4-4.44-7.07-8.43-7.07s-6,3.16-5,7.07,4.44,7.07,8.43,7.07S1700.66,698.56,1699.69,694.69Zm-5.8,3.48c-1.58,0-3-1.62-3.48-3.48s0-3.47,1.66-3.47,3,1.62,3.48,3.47S1695.54,698.17,1693.89,698.17Z" transform="translate(-189.3 -222.68)"/><polygon class="cls-16" points="1497.72 451.12 1484.43 478.76 1489.13 478.76 1502.42 451.12 1497.72 451.12"/><path class="cls-16" d="M1679.19,680.56c-1-3.95-4.45-7.07-8.44-7.07s-6,3.16-5,7.07,4.45,7.06,8.44,7.06S1680.15,684.43,1679.19,680.56Zm-9.28,0c-.48-1.9,0-3.48,1.66-3.48s3,1.62,3.47,3.48,0,3.47-1.66,3.47S1670.37,682.41,1669.91,680.56Z" transform="translate(-189.3 -222.68)"/><path class="cls-2" d="M1407.64,1016.86c8.54,0,13.73-6.91,11.6-15.44h0c-2.13-8.53-10.77-15.45-19.3-15.45H715.21c-8.53,0-13.73,6.92-11.6,15.45h0c2.13,8.53,10.77,15.44,19.3,15.44Z" transform="translate(-189.3 -222.68)"/><path class="cls-2" d="M1420.43,1068.15c8.53,0,13.72-6.92,11.6-15.45s-10.77-15.45-19.3-15.45H728c-8.53,0-13.72,6.92-11.59,15.45s10.76,15.45,19.3,15.45Z" transform="translate(-189.3 -222.68)"/><path class="cls-2" d="M1445.38,1106.26c-2.13-8.53-10.77-15.45-19.3-15.45H741.35c-8.53,0-13.73,6.92-11.6,15.45s10.77,15.45,19.3,15.45h684.74C1442.32,1121.71,1447.51,1114.79,1445.38,1106.26Z" transform="translate(-189.3 -222.68)"/><path class="cls-2" d="M1032.94,933.51c2.67,10.72,13.53,19.41,24.26,19.41h76.37c10.72,0,17.25-8.69,14.57-19.41l-36.91-148.07C1108.55,774.72,1097.69,766,1087,766H1010.6c-10.72,0-17.25,8.69-14.58,19.41Z" transform="translate(-189.3 -222.68)"/><path class="cls-2" d="M1165.13,933.51c2.67,10.72,13.53,19.41,24.25,19.41h76.38c10.72,0,17.24-8.69,14.57-19.41l-36.92-148.07c-2.67-10.72-13.53-19.41-24.25-19.41h-76.38c-10.72,0-17.24,8.69-14.57,19.41Z" transform="translate(-189.3 -222.68)"/><path class="cls-2" d="M1294.85,933.51c2.67,10.72,13.53,19.41,24.25,19.41h76.37c10.73,0,17.25-8.69,14.58-19.41l-36.92-148.07c-2.67-10.72-13.53-19.41-24.25-19.41H1272.5c-10.72,0-17.25,8.69-14.57,19.41Z" transform="translate(-189.3 -222.68)"/><path class="cls-16" d="M1007.05,920.38,976.68,798.57C972.2,780.6,954,766,936,766H677.46c-18,0-28.91,14.57-24.42,32.54l30.37,121.81c4.48,18,22.68,32.54,40.65,32.54H982.62C1000.6,952.92,1011.53,938.35,1007.05,920.38Z" transform="translate(-189.3 -222.68)"/><path class="cls-16" d="M932.76,812.75c4.08,0,6.58-3.33,5.57-7.41h0a10.16,10.16,0,0,0-9.26-7.4H687.48c-4.08,0-6.58,3.33-5.57,7.4h0a10.16,10.16,0,0,0,9.26,7.41Z" transform="translate(-189.3 -222.68)"/><path class="cls-16" d="M939.87,841.24c4.07,0,6.57-3.33,5.56-7.41h0a10.16,10.16,0,0,0-9.26-7.4H694.58c-4.08,0-6.58,3.33-5.56,7.4h0a10.14,10.14,0,0,0,9.25,7.41Z" transform="translate(-189.3 -222.68)"/><path class="cls-16" d="M952.53,862.32a10.14,10.14,0,0,0-9.25-7.4H701.68c-4.07,0-6.57,3.33-5.56,7.4a10.15,10.15,0,0,0,9.26,7.41H947C951.05,869.73,953.55,866.4,952.53,862.32Z" transform="translate(-189.3 -222.68)"/><path class="cls-16" d="M766.64,886.82h-57c-4.08,0-6.58,3.34-5.56,7.41a10.14,10.14,0,0,0,9.25,7.41h57c4.07,0,6.58-3.33,5.56-7.41A10.16,10.16,0,0,0,766.64,886.82Z" transform="translate(-189.3 -222.68)"/><path class="cls-2" d="M2014.44,1245.61l-15.93-63.89c-2.35-9.43-11.9-17.07-21.32-17.07H1841.56c-9.43,0-15.16,7.64-12.81,17.07l15.93,63.89c2.35,9.43,11.9,17.07,21.32,17.07h135.63C2011.06,1262.68,2016.79,1255,2014.44,1245.61Z" transform="translate(-189.3 -222.68)"/><path class="cls-16" d="M1975.48,1189.16a2.94,2.94,0,0,0,2.91-3.89,5.31,5.31,0,0,0-4.85-3.88H1846.81a2.93,2.93,0,0,0-2.91,3.88,5.32,5.32,0,0,0,4.85,3.89Z" transform="translate(-189.3 -222.68)"/><path class="cls-16" d="M1979.2,1204.1a2.94,2.94,0,0,0,2.92-3.88,5.33,5.33,0,0,0-4.86-3.89H1850.54a3,3,0,0,0-2.92,3.89,5.34,5.34,0,0,0,4.86,3.88Z" transform="translate(-189.3 -222.68)"/><path class="cls-16" d="M1985.84,1215.16a5.32,5.32,0,0,0-4.85-3.89H1854.27a3,3,0,0,0-2.92,3.89,5.32,5.32,0,0,0,4.85,3.88h126.73A2.93,2.93,0,0,0,1985.84,1215.16Z" transform="translate(-189.3 -222.68)"/><path class="cls-16" d="M1888.34,1228h-29.9a3,3,0,0,0-2.92,3.89h0a5.33,5.33,0,0,0,4.86,3.88h29.89a2.94,2.94,0,0,0,2.92-3.88A5.33,5.33,0,0,0,1888.34,1228Z" transform="translate(-189.3 -222.68)"/><path class="cls-15" d="M1074,1198.86c3.22,0,5.17-2.61,4.37-5.83h0a8,8,0,0,0-7.28-5.82H812.81c-3.22,0-5.18,2.6-4.38,5.82h0a8,8,0,0,0,7.28,5.83Z" transform="translate(-189.3 -222.68)"/><path class="cls-15" d="M1078.81,1218.2c3.22,0,5.18-2.61,4.38-5.82h0a8,8,0,0,0-7.28-5.83H817.63c-3.22,0-5.18,2.61-4.38,5.83h0a8,8,0,0,0,7.28,5.82Z" transform="translate(-189.3 -222.68)"/><path class="cls-15" d="M1080.94,1226.75H822.66c-3.21,0-5.17,2.61-4.37,5.83a8,8,0,0,0,7.28,5.82h258.28c3.22,0,5.17-2.6,4.37-5.82A8,8,0,0,0,1080.94,1226.75Z" transform="translate(-189.3 -222.68)"/><path class="cls-15" d="M1407.31,1198.86c3.21,0,5.17-2.61,4.37-5.83h0a8,8,0,0,0-7.28-5.82H1146.12c-3.22,0-5.17,2.6-4.37,5.82h0a8,8,0,0,0,7.28,5.83Z" transform="translate(-189.3 -222.68)"/><path class="cls-15" d="M1412.13,1218.2c3.22,0,5.17-2.61,4.37-5.82h0a8,8,0,0,0-7.28-5.83H1150.94c-3.21,0-5.17,2.61-4.37,5.83h0a8,8,0,0,0,7.28,5.82Z" transform="translate(-189.3 -222.68)"/><path class="cls-15" d="M1414.26,1226.75H1156c-3.22,0-5.17,2.61-4.37,5.83a8,8,0,0,0,7.28,5.82h258.27c3.22,0,5.18-2.6,4.38-5.82A8,8,0,0,0,1414.26,1226.75Z" transform="translate(-189.3 -222.68)"/><path class="cls-15" d="M1730.37,1198.86c3.21,0,5.17-2.61,4.37-5.83h0a8,8,0,0,0-7.28-5.82H1469.18c-3.22,0-5.17,2.6-4.37,5.82h0a8,8,0,0,0,7.28,5.83Z" transform="translate(-189.3 -222.68)"/><path class="cls-15" d="M1735.19,1218.2c3.22,0,5.18-2.61,4.37-5.82h0a8,8,0,0,0-7.28-5.83H1474c-3.22,0-5.18,2.61-4.38,5.83h0a8,8,0,0,0,7.28,5.82Z" transform="translate(-189.3 -222.68)"/><path class="cls-15" d="M1744.6,1232.58a8,8,0,0,0-7.28-5.83H1479c-3.21,0-5.17,2.61-4.37,5.83a8,8,0,0,0,7.28,5.82h258.28C1743.44,1238.4,1745.4,1235.8,1744.6,1232.58Z" transform="translate(-189.3 -222.68)"/><path class="cls-15" d="M1794.57,1271.51h-996c-8.8,0-17.74-7.13-19.92-15.89l-19.89-79.77a14.24,14.24,0,0,1,2.25-12.31,13.39,13.39,0,0,1,10.85-5h996c8.8,0,17.73,7.13,19.92,15.89l19.89,79.77a14.21,14.21,0,0,1-2.26,12.31A13.36,13.36,0,0,1,1794.57,1271.51ZM771.85,1164.39a7.7,7.7,0,0,0-6.25,2.75,8.35,8.35,0,0,0-1.19,7.3l19.89,79.77c1.55,6.21,8.08,11.46,14.26,11.46h996a7.67,7.67,0,0,0,6.24-2.75,8.35,8.35,0,0,0,1.19-7.3l-19.89-79.77c-1.55-6.21-8.08-11.46-14.25-11.46Z" transform="translate(-189.3 -222.68)"/></svg>